<svg width="234" height="81" viewBox="0 0 234 81" fill="none" xmlns="http://www.w3.org/2000/svg">
<path fill-rule="evenodd" clip-rule="evenodd" d="M1.50127 33.6465L114.943 0.519504C115.358 0.146381 115.929 -0.033531 116.515 0.060487L116.722 0L116.75 0.112884L116.759 0.11568L231.98 33.7622C233.04 34.0718 233.686 35.1923 233.422 36.2649C233.159 37.3376 232.085 37.9561 231.025 37.6465L116.543 4.21558L2.45629 37.5308C1.396 37.8404 0.32268 37.2219 0.0589593 36.1493C-0.204761 35.0766 0.440984 33.9561 1.50127 33.6465ZM52.585 42.416H40.5439V38.5781H52.585V42.416ZM54.2842 33.8027H39.0205V51H35.2119V31.9131C35.2119 31.6494 35.2607 31.4004 35.3584 31.166C35.4561 30.9316 35.5879 30.7266 35.7539 30.5508C35.9297 30.375 36.1348 30.2383 36.3691 30.1406C36.6035 30.043 36.8574 29.9941 37.1309 29.9941H54.2842V33.8027ZM83.9414 49.0811C83.9414 49.3545 83.8926 49.6084 83.7949 49.8428C83.6973 50.0771 83.5605 50.2822 83.3848 50.458C83.209 50.624 83.0039 50.7559 82.7695 50.8535C82.5352 50.9512 82.2861 51 82.0225 51H73.4385C72.6279 51 71.8076 50.9121 70.9775 50.7363C70.1475 50.5605 69.3418 50.292 68.5605 49.9307C67.7891 49.5596 67.0615 49.0908 66.3779 48.5244C65.6943 47.958 65.0938 47.2891 64.5762 46.5176C64.0684 45.7363 63.668 44.8477 63.375 43.8516C63.082 42.8457 62.9355 41.7275 62.9355 40.4971V29.9941H66.7441V40.4971C66.7441 41.5713 66.8906 42.4795 67.1836 43.2217C67.4863 43.9639 67.8672 44.584 68.3262 45.082C68.7852 45.5801 69.2881 45.9707 69.835 46.2539C70.3818 46.5371 70.8994 46.7471 71.3877 46.8838C71.8857 47.0205 72.3203 47.1084 72.6914 47.1475C73.0723 47.1768 73.3213 47.1914 73.4385 47.1914H80.1328V29.9941H83.9414V49.0811ZM113.672 51H96.2988C96.0254 51 95.7715 50.9512 95.5371 50.8535C95.3027 50.7559 95.0977 50.624 94.9219 50.458C94.7559 50.2822 94.624 50.0771 94.5264 49.8428C94.4287 49.6084 94.3799 49.3545 94.3799 49.0811V29.9941H98.1885V47.1914H113.672V51ZM139.652 42.416H127.626V38.5781H139.652V42.416ZM141.366 51H127.626C127.099 51 126.522 50.9072 125.897 50.7217C125.272 50.5361 124.691 50.2334 124.154 49.8135C123.627 49.3838 123.183 48.832 122.821 48.1582C122.47 47.4746 122.294 46.6396 122.294 45.6533V31.9131C122.294 31.6494 122.343 31.4004 122.44 31.166C122.538 30.9316 122.67 30.7266 122.836 30.5508C123.012 30.375 123.217 30.2383 123.451 30.1406C123.686 30.043 123.939 29.9941 124.213 29.9941H141.366V33.8027H126.103V45.6533C126.103 46.1514 126.234 46.5322 126.498 46.7959C126.762 47.0596 127.147 47.1914 127.655 47.1914H141.366V51ZM170.35 51H152.977C152.703 51 152.449 50.9512 152.215 50.8535C151.98 50.7559 151.775 50.624 151.6 50.458C151.434 50.2822 151.302 50.0771 151.204 49.8428C151.106 49.6084 151.058 49.3545 151.058 49.0811V29.9941H154.866V47.1914H170.35V51ZM199.758 51H195.949V45.8438H182.561V51H178.752V40.4971C178.752 38.9639 179.016 37.5527 179.543 36.2637C180.07 34.9746 180.803 33.8662 181.74 32.9385C182.678 32.0107 183.786 31.2881 185.065 30.7705C186.345 30.2529 187.741 29.9941 189.255 29.9941H197.839C198.103 29.9941 198.352 30.043 198.586 30.1406C198.82 30.2383 199.025 30.375 199.201 30.5508C199.377 30.7266 199.514 30.9316 199.611 31.166C199.709 31.4004 199.758 31.6494 199.758 31.9131V51ZM195.949 42.0352V33.8027H189.255C189.138 33.8027 188.889 33.8223 188.508 33.8613C188.137 33.8906 187.702 33.9736 187.204 34.1104C186.716 34.2471 186.198 34.457 185.651 34.7402C185.104 35.0234 184.602 35.4141 184.143 35.9121C183.684 36.4102 183.303 37.0352 183 37.7871C182.707 38.5293 182.561 39.4326 182.561 40.4971V42.0352H195.949ZM42.7727 61.9174H41.3636C41.2803 61.5121 41.1345 61.156 40.9261 60.8492C40.7216 60.5424 40.4716 60.2848 40.1761 60.0765C39.8845 59.8643 39.5606 59.7052 39.2045 59.5992C38.8485 59.4931 38.4773 59.4401 38.0909 59.4401C37.3864 59.4401 36.7481 59.6181 36.1761 59.9742C35.608 60.3302 35.1553 60.8549 34.8182 61.548C34.4848 62.2412 34.3182 63.0916 34.3182 64.0992C34.3182 65.1068 34.4848 65.9571 34.8182 66.6503C35.1553 67.3435 35.608 67.8681 36.1761 68.2242C36.7481 68.5802 37.3864 68.7583 38.0909 68.7583C38.4773 68.7583 38.8485 68.7052 39.2045 68.5992C39.5606 68.4931 39.8845 68.3359 40.1761 68.1276C40.4716 67.9155 40.7216 67.656 40.9261 67.3492C41.1345 67.0386 41.2803 66.6825 41.3636 66.281H42.7727C42.6667 66.8757 42.4735 67.4079 42.1932 67.8776C41.9129 68.3473 41.5644 68.7469 41.1477 69.0764C40.7311 69.4022 40.2633 69.6503 39.7443 69.8208C39.2292 69.9912 38.678 70.0764 38.0909 70.0764C37.0985 70.0764 36.2159 69.834 35.4432 69.3492C34.6705 68.8643 34.0625 68.1749 33.6193 67.281C33.1761 66.3871 32.9545 65.3264 32.9545 64.0992C32.9545 62.8719 33.1761 61.8113 33.6193 60.9174C34.0625 60.0234 34.6705 59.334 35.4432 58.8492C36.2159 58.3643 37.0985 58.1219 38.0909 58.1219C38.678 58.1219 39.2292 58.2071 39.7443 58.3776C40.2633 58.548 40.7311 58.798 41.1477 59.1276C41.5644 59.4533 41.9129 59.8511 42.1932 60.3208C42.4735 60.7867 42.6667 61.3189 42.7727 61.9174ZM48.7334 70.0992C47.9455 70.0992 47.2542 69.9117 46.6595 69.5367C46.0686 69.1617 45.6065 68.6371 45.2731 67.9628C44.9436 67.2886 44.7788 66.5007 44.7788 65.5992C44.7788 64.6901 44.9436 63.8965 45.2731 63.2185C45.6065 62.5405 46.0686 62.014 46.6595 61.639C47.2542 61.264 47.9455 61.0765 48.7334 61.0765C49.5212 61.0765 50.2106 61.264 50.8015 61.639C51.3962 62.014 51.8584 62.5405 52.1879 63.2185C52.5212 63.8965 52.6879 64.6901 52.6879 65.5992C52.6879 66.5007 52.5212 67.2886 52.1879 67.9628C51.8584 68.6371 51.3962 69.1617 50.8015 69.5367C50.2106 69.9117 49.5212 70.0992 48.7334 70.0992ZM48.7334 68.8946C49.3318 68.8946 49.8243 68.7412 50.2106 68.4344C50.597 68.1276 50.883 67.7242 51.0686 67.2242C51.2542 66.7242 51.347 66.1825 51.347 65.5992C51.347 65.0158 51.2542 64.4723 51.0686 63.9685C50.883 63.4647 50.597 63.0575 50.2106 62.7469C49.8243 62.4363 49.3318 62.281 48.7334 62.281C48.1349 62.281 47.6424 62.4363 47.2561 62.7469C46.8697 63.0575 46.5837 63.4647 46.3981 63.9685C46.2125 64.4723 46.1197 65.0158 46.1197 65.5992C46.1197 66.1825 46.2125 66.7242 46.3981 67.2242C46.5837 67.7242 46.8697 68.1276 47.2561 68.4344C47.6424 68.7412 48.1349 68.8946 48.7334 68.8946ZM56.3957 64.6674V69.9174H55.0548V61.1901H56.3502V62.5537H56.4639C56.6684 62.1105 56.979 61.7545 57.3957 61.4855C57.8123 61.2128 58.3502 61.0765 59.0093 61.0765C59.6002 61.0765 60.1173 61.1977 60.5605 61.4401C61.0036 61.6787 61.3483 62.0424 61.5945 62.531C61.8408 63.0158 61.9639 63.6295 61.9639 64.3719V69.9174H60.623V64.4628C60.623 63.7772 60.4449 63.2431 60.0889 62.8605C59.7328 62.4742 59.2442 62.281 58.623 62.281C58.1949 62.281 57.8123 62.3738 57.4752 62.5594C57.1419 62.745 56.8786 63.0158 56.6855 63.3719C56.4923 63.728 56.3957 64.1598 56.3957 64.6674ZM70.916 63.1446L69.7114 63.4855C69.6357 63.2848 69.5239 63.0897 69.3762 62.9003C69.2323 62.7071 69.0353 62.548 68.7853 62.423C68.5353 62.298 68.2152 62.2355 67.8251 62.2355C67.291 62.2355 66.8459 62.3586 66.4898 62.6049C66.1376 62.8473 65.9614 63.156 65.9614 63.531C65.9614 63.8643 66.0826 64.1276 66.3251 64.3208C66.5675 64.5139 66.9463 64.6749 67.4614 64.8037L68.7569 65.1219C69.5372 65.3113 70.1186 65.6011 70.5012 65.9912C70.8838 66.3776 71.0751 66.8757 71.0751 67.4855C71.0751 67.9855 70.9311 68.4325 70.6432 68.8264C70.3591 69.2204 69.9614 69.531 69.4501 69.7583C68.9387 69.9855 68.344 70.0992 67.666 70.0992C66.7758 70.0992 66.0391 69.906 65.4557 69.5196C64.8724 69.1333 64.5031 68.5689 64.3478 67.8264L65.6205 67.5083C65.7417 67.978 65.9709 68.3302 66.308 68.5651C66.6489 68.7999 67.094 68.9174 67.6432 68.9174C68.2682 68.9174 68.7645 68.7848 69.1319 68.5196C69.5031 68.2507 69.6887 67.9287 69.6887 67.5537C69.6887 67.2507 69.5826 66.9969 69.3705 66.7924C69.1584 66.584 68.8326 66.4287 68.3932 66.3264L66.9387 65.9855C66.1395 65.7961 65.5523 65.5026 65.1773 65.1049C64.8061 64.7033 64.6205 64.2014 64.6205 63.5992C64.6205 63.1068 64.7588 62.6711 65.0353 62.2924C65.3156 61.9136 65.6963 61.6162 66.1773 61.4003C66.6622 61.1844 67.2114 61.0765 67.8251 61.0765C68.6887 61.0765 69.3667 61.2658 69.8591 61.6446C70.3554 62.0234 70.7076 62.5234 70.916 63.1446ZM77.209 61.1901V62.3265H75.3453V67.4174C75.3453 67.7961 75.4003 68.0802 75.5101 68.2696C75.6237 68.4552 75.7677 68.5802 75.9419 68.6446C76.12 68.7052 76.3075 68.7355 76.5044 68.7355C76.6522 68.7355 76.7734 68.728 76.8681 68.7128L77.0953 68.6674L77.3681 69.8719C77.2772 69.906 77.1503 69.9401 76.9874 69.9742C76.8245 70.0121 76.6181 70.031 76.3681 70.031C75.9893 70.031 75.6181 69.9496 75.2544 69.7867C74.8946 69.6238 74.5953 69.3757 74.3567 69.0424C74.1219 68.709 74.0044 68.2886 74.0044 67.781V62.3265H72.6862V61.1901H74.0044V59.0992H75.3453V61.1901H77.209ZM79.546 69.9174V61.1901H80.8415V62.5083H80.9324C81.0915 62.0765 81.3794 61.7261 81.796 61.4571C82.2127 61.1882 82.6824 61.0537 83.2051 61.0537C83.3036 61.0537 83.4267 61.0556 83.5744 61.0594C83.7222 61.0632 83.8339 61.0689 83.9097 61.0765V62.4401C83.8642 62.4287 83.76 62.4117 83.5972 62.389C83.4381 62.3624 83.2695 62.3492 83.0915 62.3492C82.6672 62.3492 82.2884 62.4382 81.9551 62.6162C81.6256 62.7905 81.3642 63.0329 81.171 63.3435C80.9816 63.6503 80.8869 64.0007 80.8869 64.3946V69.9174H79.546ZM91.3191 66.3492V61.1901H92.6601V69.9174H91.3191V68.4401H91.2282C91.0237 68.8833 90.7055 69.2602 90.2737 69.5708C89.8419 69.8776 89.2964 70.031 88.6373 70.031C88.0919 70.031 87.607 69.9117 87.1828 69.673C86.7585 69.4306 86.4252 69.067 86.1828 68.5821C85.9404 68.0935 85.8191 67.478 85.8191 66.7355V61.1901H87.1601V66.6446C87.1601 67.281 87.3381 67.7886 87.6941 68.1674C88.054 68.5461 88.5123 68.7355 89.0691 68.7355C89.4025 68.7355 89.7415 68.6503 90.0862 68.4799C90.4347 68.3094 90.7263 68.048 90.9612 67.6958C91.1998 67.3435 91.3191 66.8946 91.3191 66.3492ZM98.9815 70.0992C98.1633 70.0992 97.4588 69.906 96.8678 69.5196C96.2769 69.1333 95.8224 68.6011 95.5042 67.923C95.186 67.245 95.0269 66.4704 95.0269 65.5992C95.0269 64.7128 95.1898 63.9306 95.5156 63.2526C95.8451 62.5708 96.3035 62.0386 96.8906 61.656C97.4815 61.2696 98.1709 61.0765 98.9588 61.0765C99.5724 61.0765 100.125 61.1901 100.618 61.4174C101.11 61.6446 101.514 61.9628 101.828 62.3719C102.142 62.781 102.338 63.2583 102.413 63.8037H101.072C100.97 63.406 100.743 63.0537 100.391 62.7469C100.042 62.4363 99.5724 62.281 98.9815 62.281C98.4588 62.281 98.0004 62.4174 97.6065 62.6901C97.2163 62.959 96.9114 63.3397 96.6917 63.8321C96.4758 64.3208 96.3678 64.8946 96.3678 65.5537C96.3678 66.228 96.4739 66.8151 96.686 67.3151C96.9019 67.8151 97.205 68.2033 97.5951 68.4799C97.9891 68.7564 98.4512 68.8946 98.9815 68.8946C99.33 68.8946 99.6463 68.834 99.9303 68.7128C100.214 68.5916 100.455 68.4174 100.652 68.1901C100.849 67.9628 100.989 67.6901 101.072 67.3719H102.413C102.338 67.8871 102.15 68.3511 101.851 68.7639C101.555 69.173 101.163 69.4988 100.675 69.7412C100.19 69.9799 99.6254 70.0992 98.9815 70.0992ZM108.489 61.1901V62.3265H106.625V67.4174C106.625 67.7961 106.68 68.0802 106.79 68.2696C106.904 68.4552 107.048 68.5802 107.222 68.6446C107.4 68.7052 107.587 68.7355 107.784 68.7355C107.932 68.7355 108.053 68.728 108.148 68.7128L108.375 68.6674L108.648 69.8719C108.557 69.906 108.43 69.9401 108.267 69.9742C108.105 70.0121 107.898 70.031 107.648 70.031C107.269 70.031 106.898 69.9496 106.534 69.7867C106.175 69.6238 105.875 69.3757 105.637 69.0424C105.402 68.709 105.284 68.2886 105.284 67.781V62.3265H103.966V61.1901H105.284V59.0992H106.625V61.1901H108.489ZM110.826 69.9174V61.1901H112.167V69.9174H110.826ZM111.508 59.7355C111.246 59.7355 111.021 59.6465 110.832 59.4685C110.646 59.2905 110.553 59.0765 110.553 58.8265C110.553 58.5765 110.646 58.3624 110.832 58.1844C111.021 58.0064 111.246 57.9174 111.508 57.9174C111.769 57.9174 111.993 58.0064 112.178 58.1844C112.368 58.3624 112.462 58.5765 112.462 58.8265C112.462 59.0765 112.368 59.2905 112.178 59.4685C111.993 59.6465 111.769 59.7355 111.508 59.7355ZM118.488 70.0992C117.7 70.0992 117.009 69.9117 116.414 69.5367C115.824 69.1617 115.361 68.6371 115.028 67.9628C114.699 67.2886 114.534 66.5007 114.534 65.5992C114.534 64.6901 114.699 63.8965 115.028 63.2185C115.361 62.5405 115.824 62.014 116.414 61.639C117.009 61.264 117.7 61.0765 118.488 61.0765C119.276 61.0765 119.966 61.264 120.557 61.639C121.151 62.014 121.613 62.5405 121.943 63.2185C122.276 63.8965 122.443 64.6901 122.443 65.5992C122.443 66.5007 122.276 67.2886 121.943 67.9628C121.613 68.6371 121.151 69.1617 120.557 69.5367C119.966 69.9117 119.276 70.0992 118.488 70.0992ZM118.488 68.8946C119.087 68.8946 119.579 68.7412 119.966 68.4344C120.352 68.1276 120.638 67.7242 120.824 67.2242C121.009 66.7242 121.102 66.1825 121.102 65.5992C121.102 65.0158 121.009 64.4723 120.824 63.9685C120.638 63.4647 120.352 63.0575 119.966 62.7469C119.579 62.4363 119.087 62.281 118.488 62.281C117.89 62.281 117.397 62.4363 117.011 62.7469C116.625 63.0575 116.339 63.4647 116.153 63.9685C115.968 64.4723 115.875 65.0158 115.875 65.5992C115.875 66.1825 115.968 66.7242 116.153 67.2242C116.339 67.7242 116.625 68.1276 117.011 68.4344C117.397 68.7412 117.89 68.8946 118.488 68.8946ZM126.151 64.6674V69.9174H124.81V61.1901H126.105V62.5537H126.219C126.423 62.1105 126.734 61.7545 127.151 61.4855C127.567 61.2128 128.105 61.0765 128.764 61.0765C129.355 61.0765 129.872 61.1977 130.315 61.4401C130.759 61.6787 131.103 62.0424 131.35 62.531C131.596 63.0158 131.719 63.6295 131.719 64.3719V69.9174H130.378V64.4628C130.378 63.7772 130.2 63.2431 129.844 62.8605C129.488 62.4742 128.999 62.281 128.378 62.281C127.95 62.281 127.567 62.3738 127.23 62.5594C126.897 62.745 126.634 63.0158 126.44 63.3719C126.247 63.728 126.151 64.1598 126.151 64.6674ZM142.605 70.0764C141.839 70.0764 141.18 69.9363 140.627 69.656C140.074 69.3757 139.648 68.9912 139.349 68.5026C139.05 68.0139 138.9 67.4552 138.9 66.8264C138.9 66.3416 139.002 65.9117 139.207 65.5367C139.415 65.1579 139.701 64.8075 140.065 64.4855C140.399 64.1892 140.779 63.8929 141.204 63.5966L140.923 63.2583C140.589 62.8568 140.324 62.4609 140.127 62.0708C139.93 61.6806 139.832 61.2583 139.832 60.8037C139.832 60.281 139.947 59.8227 140.178 59.4287C140.413 59.031 140.741 58.7223 141.161 58.5026C141.586 58.2791 142.082 58.1674 142.65 58.1674C143.233 58.1674 143.735 58.281 144.156 58.5083C144.576 58.7318 144.9 59.0291 145.127 59.4003C145.355 59.7677 145.468 60.1674 145.468 60.5992C145.468 61.156 145.33 61.639 145.053 62.048C144.777 62.4571 144.4 62.8378 143.923 63.1901L143.071 63.825L145.6 66.914C145.666 66.7862 145.726 66.6528 145.781 66.5139C145.982 66.0139 146.082 65.4514 146.082 64.8264H147.377C147.377 65.5992 147.288 66.2299 147.11 66.7185C146.932 67.2071 146.732 67.5897 146.508 67.8662L146.444 67.9449L148.059 69.9174H146.446L145.625 68.9272C145.265 69.2975 144.823 69.5783 144.298 69.7696C143.726 69.9742 143.161 70.0764 142.605 70.0764ZM141.605 64.9174L142.035 64.597L142.036 64.5992L144.818 67.9542C144.522 68.2348 144.197 68.4555 143.843 68.6162C143.427 68.8018 142.999 68.8946 142.559 68.8946C142.097 68.8946 141.694 68.798 141.349 68.6049C141.004 68.4117 140.737 68.1579 140.548 67.8435C140.358 67.5291 140.264 67.1901 140.264 66.8264C140.264 66.6674 140.357 66.406 140.542 66.0424C140.728 65.6787 141.082 65.3037 141.605 64.9174ZM143.014 62.2583L142.25 62.8256C142.163 62.7188 142.076 62.613 141.991 62.5083C141.76 62.2166 141.569 61.9325 141.417 61.656C141.269 61.3757 141.196 61.0992 141.196 60.8265C141.196 60.584 141.258 60.3492 141.383 60.1219C141.512 59.8908 141.688 59.7015 141.911 59.5537C142.139 59.4022 142.4 59.3265 142.696 59.3265C143.116 59.3265 143.455 59.4647 143.713 59.7412C143.974 60.0177 144.105 60.3037 144.105 60.5992C144.105 60.9969 144.004 61.3189 143.803 61.5651C143.607 61.8113 143.343 62.0424 143.014 62.2583ZM158.479 61.1901V62.3265H156.615V67.4174C156.615 67.7961 156.67 68.0802 156.78 68.2696C156.894 68.4552 157.038 68.5802 157.212 68.6446C157.39 68.7052 157.577 68.7355 157.774 68.7355C157.922 68.7355 158.043 68.728 158.138 68.7128L158.365 68.6674L158.638 69.8719C158.547 69.906 158.42 69.9401 158.257 69.9742C158.095 70.0121 157.888 70.031 157.638 70.031C157.259 70.031 156.888 69.9496 156.524 69.7867C156.165 69.6238 155.865 69.3757 155.627 69.0424C155.392 68.709 155.274 68.2886 155.274 67.781V62.3265H153.956V61.1901H155.274V59.0992H156.615V61.1901H158.479ZM160.816 69.9174V61.1901H162.111V62.5083H162.202C162.361 62.0765 162.649 61.7261 163.066 61.4571C163.483 61.1882 163.952 61.0537 164.475 61.0537C164.574 61.0537 164.697 61.0556 164.844 61.0594C164.992 61.0632 165.104 61.0689 165.18 61.0765V62.4401C165.134 62.4287 165.03 62.4117 164.867 62.389C164.708 62.3624 164.54 62.3492 164.361 62.3492C163.937 62.3492 163.558 62.4382 163.225 62.6162C162.896 62.7905 162.634 63.0329 162.441 63.3435C162.252 63.6503 162.157 64.0007 162.157 64.3946V69.9174H160.816ZM169.657 70.1219C169.104 70.1219 168.602 70.0177 168.152 69.8094C167.701 69.5973 167.343 69.2924 167.078 68.8946C166.813 68.4931 166.68 68.0083 166.68 67.4401C166.68 66.9401 166.779 66.5348 166.976 66.2242C167.172 65.9098 167.436 65.6636 167.765 65.4855C168.095 65.3075 168.458 65.1749 168.856 65.0878C169.258 64.9969 169.661 64.9249 170.066 64.8719C170.597 64.8037 171.027 64.7526 171.356 64.7185C171.69 64.6806 171.932 64.6181 172.083 64.531C172.239 64.4439 172.316 64.2924 172.316 64.0764V64.031C172.316 63.4704 172.163 63.0348 171.856 62.7242C171.553 62.4136 171.093 62.2583 170.476 62.2583C169.835 62.2583 169.333 62.3984 168.97 62.6787C168.606 62.959 168.351 63.2583 168.203 63.5765L166.93 63.1219C167.157 62.5916 167.46 62.1787 167.839 61.8833C168.222 61.584 168.638 61.3757 169.089 61.2583C169.544 61.1371 169.991 61.0765 170.43 61.0765C170.71 61.0765 171.032 61.1105 171.396 61.1787C171.763 61.2431 172.118 61.3776 172.458 61.5821C172.803 61.7867 173.089 62.0954 173.316 62.5083C173.544 62.9211 173.657 63.4742 173.657 64.1674V69.9174H172.316V68.7355H172.248C172.157 68.9249 172.006 69.1276 171.794 69.3435C171.582 69.5594 171.299 69.7431 170.947 69.8946C170.595 70.0461 170.165 70.1219 169.657 70.1219ZM169.862 68.9174C170.392 68.9174 170.839 68.8132 171.203 68.6049C171.57 68.3965 171.847 68.1276 172.032 67.798C172.222 67.4685 172.316 67.1219 172.316 66.7583V65.531C172.26 65.5992 172.135 65.6617 171.941 65.7185C171.752 65.7715 171.532 65.8189 171.282 65.8605C171.036 65.8984 170.796 65.9325 170.561 65.9628C170.33 65.9893 170.142 66.0121 169.998 66.031C169.65 66.0764 169.324 66.1503 169.021 66.2526C168.722 66.3511 168.479 66.5007 168.294 66.7014C168.112 66.8984 168.021 67.1674 168.021 67.5083C168.021 67.9742 168.193 68.3264 168.538 68.5651C168.887 68.7999 169.328 68.9174 169.862 68.9174ZM179.72 70.0992C178.993 70.0992 178.351 69.9155 177.794 69.548C177.237 69.1768 176.802 68.6541 176.487 67.9799C176.173 67.3018 176.016 66.5007 176.016 65.5764C176.016 64.6598 176.173 63.8643 176.487 63.1901C176.802 62.5158 177.239 61.995 177.8 61.6276C178.36 61.2602 179.008 61.0765 179.743 61.0765C180.311 61.0765 180.76 61.1711 181.09 61.3605C181.423 61.5461 181.677 61.7583 181.851 61.9969C182.029 62.2318 182.167 62.4249 182.266 62.5765H182.379V58.281H183.72V69.9174H182.425V68.5764H182.266C182.167 68.7355 182.027 68.9363 181.845 69.1787C181.663 69.4174 181.404 69.6314 181.067 69.8208C180.73 70.0064 180.281 70.0992 179.72 70.0992ZM179.902 68.8946C180.44 68.8946 180.894 68.7545 181.266 68.4742C181.637 68.1901 181.919 67.798 182.112 67.298C182.305 66.7943 182.402 66.2128 182.402 65.5537C182.402 64.9022 182.307 64.3321 182.118 63.8435C181.929 63.3511 181.648 62.9685 181.277 62.6958C180.906 62.4193 180.447 62.281 179.902 62.281C179.334 62.281 178.86 62.4268 178.482 62.7185C178.107 63.0064 177.824 63.3984 177.635 63.8946C177.449 64.3871 177.357 64.9401 177.357 65.5537C177.357 66.1749 177.451 66.7393 177.641 67.2469C177.834 67.7507 178.118 68.1522 178.493 68.4514C178.872 68.7469 179.341 68.8946 179.902 68.8946ZM186.682 69.9174V61.1901H188.023V69.9174H186.682ZM187.364 59.7355C187.103 59.7355 186.877 59.6465 186.688 59.4685C186.502 59.2905 186.41 59.0765 186.41 58.8265C186.41 58.5765 186.502 58.3624 186.688 58.1844C186.877 58.0064 187.103 57.9174 187.364 57.9174C187.625 57.9174 187.849 58.0064 188.035 58.1844C188.224 58.3624 188.319 58.5765 188.319 58.8265C188.319 59.0765 188.224 59.2905 188.035 59.4685C187.849 59.6465 187.625 59.7355 187.364 59.7355ZM192.14 64.6674V69.9174H190.799V61.1901H192.095V62.5537H192.208C192.413 62.1105 192.723 61.7545 193.14 61.4855C193.557 61.2128 194.095 61.0765 194.754 61.0765C195.345 61.0765 195.862 61.1977 196.305 61.4401C196.748 61.6787 197.093 62.0424 197.339 62.531C197.585 63.0158 197.708 63.6295 197.708 64.3719V69.9174H196.367V64.4628C196.367 63.7772 196.189 63.2431 195.833 62.8605C195.477 62.4742 194.989 62.281 194.367 62.281C193.939 62.281 193.557 62.3738 193.22 62.5594C192.886 62.745 192.623 63.0158 192.43 63.3719C192.237 63.728 192.14 64.1598 192.14 64.6674ZM204.001 73.3719C203.354 73.3719 202.797 73.2886 202.331 73.1219C201.865 72.959 201.477 72.7431 201.166 72.4742C200.859 72.209 200.615 71.9249 200.433 71.6219L201.501 70.8719C201.622 71.031 201.776 71.2128 201.961 71.4174C202.147 71.6257 202.401 71.8056 202.723 71.9571C203.049 72.1124 203.475 72.1901 204.001 72.1901C204.706 72.1901 205.287 72.0196 205.746 71.6787C206.204 71.3378 206.433 70.8037 206.433 70.0764V68.3037H206.319C206.221 68.4628 206.081 68.6598 205.899 68.8946C205.721 69.1257 205.463 69.3321 205.126 69.5139C204.793 69.692 204.342 69.781 203.774 69.781C203.069 69.781 202.437 69.6143 201.876 69.281C201.319 68.9477 200.878 68.4628 200.552 67.8264C200.23 67.1901 200.069 66.4174 200.069 65.5083C200.069 64.6143 200.227 63.8359 200.541 63.173C200.855 62.5064 201.293 61.9912 201.854 61.6276C202.414 61.2602 203.062 61.0765 203.797 61.0765C204.365 61.0765 204.816 61.1711 205.149 61.3605C205.486 61.5461 205.744 61.7583 205.922 61.9969C206.104 62.2318 206.244 62.4249 206.342 62.5765H206.479V61.1901H207.774V70.1674C207.774 70.9174 207.604 71.5272 207.263 71.9969C206.925 72.4704 206.471 72.817 205.899 73.0367C205.331 73.2602 204.698 73.3719 204.001 73.3719ZM203.956 68.5764C204.494 68.5764 204.948 68.4533 205.319 68.2071C205.691 67.9609 205.973 67.6068 206.166 67.1446C206.359 66.6825 206.456 66.1295 206.456 65.4855C206.456 64.8568 206.361 64.3018 206.172 63.8208C205.982 63.3397 205.702 62.9628 205.331 62.6901C204.96 62.4174 204.501 62.281 203.956 62.281C203.388 62.281 202.914 62.4249 202.535 62.7128C202.16 63.0007 201.878 63.3871 201.689 63.8719C201.503 64.3568 201.41 64.8946 201.41 65.4855C201.41 66.0916 201.505 66.6276 201.694 67.0935C201.888 67.5556 202.172 67.9193 202.547 68.1844C202.925 68.4458 203.395 68.5764 203.956 68.5764Z" fill="black"/>
</svg>
